/* XPM */
static char *result[] = {
/* columns rows colors chars-per-pixel */
"64 64 142 2 ",
"   c #3F271D",
".  c #4E1F0F",
"X  c #472315",
"o  c #4D2212",
"O  c #4E2A17",
"+  c #4B2719",
"@  c #44291B",
"#  c #4B2A1B",
"$  c #522312",
"%  c #552A15",
"&  c #5B2B15",
"*  c #502718",
"=  c #542C1B",
"-  c #5B2E1A",
";  c #5C3117",
":  c #54311F",
">  c #5C321B",
",  c #632E16",
"<  c #692F17",
"1  c #643117",
"2  c #6A3317",
"3  c #63341B",
"4  c #6B3519",
"5  c #66381D",
"6  c #6D391C",
"7  c #70361A",
"8  c #743D1C",
"9  c #793F1D",
"0  c #4B2E21",
"q  c #4D3123",
"w  c #4B3228",
"e  c #533324",
"r  c #5B3623",
"t  c #5D3925",
"y  c #533629",
"u  c #583729",
"i  c #55392A",
"p  c #5C3B2A",
"a  c #533E34",
"s  c #5C3F31",
"d  c #613622",
"f  c #683621",
"g  c #643A24",
"h  c #6C3C23",
"j  c #633E2A",
"k  c #693E29",
"l  c #723E22",
"z  c #7B3E21",
"x  c #77401E",
"c  c #7A411E",
"v  c #574036",
"b  c #5E4234",
"n  c #5F4538",
"m  c #6E4026",
"M  c #65412E",
"N  c #6C422B",
"B  c #754224",
"V  c #7C4422",
"C  c #74442B",
"Z  c #7A462A",
"A  c #73492F",
"S  c #7C492B",
"D  c #634435",
"F  c #6B4533",
"G  c #6E4935",
"H  c #664738",
"J  c #66493A",
"K  c #6D4B3B",
"L  c #724730",
"P  c #734B34",
"I  c #7C4E33",
"U  c #734D3A",
"Y  c #784F3B",
"T  c #7E5136",
"R  c #76513D",
"E  c #7B533C",
"W  c #6F4F41",
"Q  c #755443",
"!  c #7B5642",
"~  c #7C5946",
"^  c #775748",
"/  c #755848",
"(  c #7C5B4A",
")  c #7D6050",
"_  c #814622",
"`  c #844925",
"'  c #8A4C25",
"]  c #814728",
"[  c #844C2B",
"{  c #894E2A",
"}  c #8F5027",
"|  c #87502F",
" . c #8C512D",
".. c #92532D",
"X. c #97582D",
"o. c #9A592E",
"O. c #814F32",
"+. c #845133",
"@. c #8C5433",
"#. c #8E5835",
"$. c #83553B",
"%. c #895739",
"&. c #85583D",
"*. c #8B5A3C",
"=. c #925632",
"-. c #985731",
";. c #955A35",
":. c #9A5C35",
">. c #945C3A",
",. c #9A5E39",
"<. c #A05F37",
"1. c #9C6036",
"2. c #96613F",
"3. c #9C613D",
"4. c #A06037",
"5. c #A1633D",
"6. c #805741",
"7. c #845B44",
"8. c #8B5D43",
"9. c #815D4A",
"0. c #915F41",
"q. c #8E6145",
"w. c #84604D",
"e. c #89614B",
"r. c #926244",
"t. c #9A6442",
"y. c #946549",
"u. c #98674A",
"i. c #96684D",
"p. c #996A4E",
"a. c #866452",
"s. c #886652",
"d. c #896857",
"f. c #9B6D53",
"g. c #9D7155",
"h. c #A26541",
"j. c #A46844",
"k. c #A47356",
"l. c #A4765B",
"z. c #A7795E",
"x. c #AA7B5F",
"c. c #A87B60",
/* pixels */
";.;.;.;.;.;.;.;.;.>.;.;.;.;.;.>.+.O.[ C Q 8.@.[ [ [ S Z Z [ { { %.;.[ [ B V [ { { A k I l 9 V +.+.h > % 6 B 6 V V V _ _ V V V 6 ",
">.;.;.;.;.;.;.>.;.;.;.;.;.;.;.@.{ ;.=.[ ^ 7.[ ] ] ] ] Z Z ] [ ` { { { { [ ` {  . .Z k [ 9 9 8 8 8 6 4 1 6 c x V _ c _ _ _ _ V g ",
",.:.;.;.| ;.:.:.>.:.:.,.,.,.;.;.;.;.;.| 9.$.{ { [ ] z V V z ] { {  . . . .{  . .{ Z k [ 9 c c c x 7 7 4 4 c _ _ _ _ _ _ _ _ _ 6 ",
",.,.@.S B S @.,.:.>.,.,.,.,.;.,.:.>.@.Z ( 7.{ [ [ ] Z ] [ [ { {  . . . . . . . . .Z k [ c c c 8 8 8 8 8 4 9 c c _ _ _ _ _ ` _ h ",
"@.[ B h h h h Z B C S O.@.;.@.=.| S l g / R B 6 5 h l z Z ` ` [ [ [ [ ` [ [ ] ] ] l k Z 9 8 4 2 2 2 1 2 2 6 5 B V V V V B V ] m ",
"J J H H D e q q 0   q p D H H H H D b u i v n v a s s D D H s e e p H H H H H H s y i D n D H D D D n n b w D D D D D v v D J J ",
"+.O.I C B m j > = = E +.O.O.8.f.e.I A P T T T +.O.+.%.%.%.O.k D 7.>.8.0.p.f.r.+.I $.8.$.&.&.*.*.*.2.%.T N G &.T I I T I I T T T ",
"B z 9 9 6 6 4 1 1 e I [ V V Z B V V 8 6 V V ` ` { { { { [ [ l C >.>.;.;.;.+.>.@.[ [ =.=.;.| +.@.| | | | B P V B x 8 x x x x x x ",
"c x 8 8 8 4 8 4 8 r T V _ c c _ V _ c x c ` ` ` ` { ` } ` { x A *.:.;.;.;.;.;.;.@.@.=.@.@.[ [ [ [ [ { | A G c c x 9 8 c x 9 x c ",
"c c c 9 8 8 c 4 8 r T V _ _ _ _ _ _ _ c c _ ` } ` ` ` ` } { x A 0.,.,.,.,.>.,.,.;.=.=.;. .[ [ [ [  .[ [ Z I V c c 9 8 8 c c c V ",
"V c c c c c c 8 3 u +.` ` c c _ V c x x x 6 V ` } } ` ` V { x A >.,.,.,.;.;.,.=.=.@.| O.;.@.S | [ S S | S I V c c 4 1 2 7 c c _ ",
"> 3 > > ; - = % O # r ; ; ; % = = = % O O O O : ; : = @ @ : = e k k g g 3 g g t r d d r t t > > = # : r e i > ; ; = = = > > > > ",
"e.e.e.e.e.e.e.9.E E e.e.( E R R R ! R M b ) w.w.w.w.~ E ~ ~ E E R E $.9.w.6.6.7.P u n d.~ ~ ! ~ ^ ^ ! ! R U ~ w.! E Q R Q ! G e ",
"r.>.0.>.2.3.t.#.S | Z V Z B m m B B B 6 R w.1.=.=.=.X.#...} | S l B ] _ V ] _ } ] g F e.V B B x B h h B B x V Z B B h B B V m > ",
";.;.:.;.2.>.1.=.{ ` c 8 x 8 x 6 8 8 x x R %.X.X.} } X.} } } ' ' z c ' ' _ _ ' ' _ h F $.8 6 7 6 4 4 4 8 7 x 8 9 9 8 7 8 9 9 9 > ",
";.;.:.>.;.#.1.1.;.V c x x x x x x x x x E %.X.X.} X.} } X.} } } _ ' ' ' ' ' ' } ' l F $.x 8 8 7 4 4 7 7 8 x x c x x 8 8 x B 9 3 ",
";.;.;.;.;.:.-.{ _ c c c c c c c c c c x ~ *.o.X.} ..X.X.X.} } _ _ ' ' ' ' ' } } ' h G 8.c x 6 x 8 8 8 x c c c c c c 9 9 V V 9 5 ",
"S C h C S O.| B 6 x x 6 8 8 x 6 8 6 x 6 Q I V B h x c ` V x 6 6 9 9 9 9 9 9 _ _ c g b T 6 5 > 5 1 1 4 4 6 8 8 7 7 8 7 6 7 7 7 d ",
"w.( ( ( 9.9.9.! M   : H R / ~ ! E ! ! G K / ~ / / / 9.9.w./ K b j K Q ! ! 6.! ~ E ~ ( ) / Q / R Q Q R R U H 9.9.9.9.9.9.~ 9.9.( ",
"y.8.8.8.7.8.0.0.I q P $.2.%.%.&.&.*.y.*.*.%.*.*.*.*.2.r.2.*.P M F Z I I I I P A P E E P I T T T T T T I M ~ f.r.y.y.u.u.u.y.y.y.",
",.;.;.=.@.=.=.>.;.g %.;.1.;.;. ...=.1.;.#.X.| | ` { =.1.#.;.B N C c x x x 9 9 6 6 B V B c c ` ` V ` ` c m ~ 2.>.,.,.<.0.,.,.>.0.",
",.;.;.;.;.;.,.>.;.N *.1.1.=.:.=.;.=.:.;.1.;.X. ._ c ..:.X.1.Z M C c 9 x 8 8 8 x 8 B V V _ _ _ _ _ _ ` c B w.;.;.;.,.,.=.,.<.<.5.",
",.,.,.,.,.,.,.,.1.N %.;.1.X.:.:.1. .' z _ ` V V 7 7 { ;.;.1.S m C c x c z x 9 9 9 8 9 c c ` ` ` ` ` ` _ B w.;.=.;.;.=.>.,.<.<.0.",
",.,.,.,.;.;.:.,.;.N $.;.1...-.{ V 8 7 < < 2 2 2 , , 6 8 V | m N Z c V x 8 9 9 8 8 8 6 l c _ ` ` V V _ V Z w.@.+.[ O.;.=.,.,.,.<.",
"k l k P L C N N k e k N C k g r : = = = % + = = = = # # e t : q M g M m t t M > t > t p m M N M M i M m M K N M j j F C P P L L ",
"Y Q Y 9.e.9.! U U U U U U U K U G K G s q p P U U U K G R E R G R R R E R R R R R D b E &.E E E P P R w.R E E 7.7.7.8.8.8.8.Y p ",
"Z Z z O.E +.S N k A C C k h k k k k k r u N +.+.O.I S O.+.%.+.[ | I A A A A A A A M N r.2.#.#.+.| #.#.2.2.#.2.2.t.t.t.t.t.r.&.r ",
"l 6 7 f 3 6 4 4 , 3 1 1 & & & & & & & $ u B V V c V l z B V V c x 6 3 ; ; m ; ; ; > N >. .{  .| ` | | } |  .....;.@.=.=.-.-.=.r ",
"l 4 7 7 4 8 4 7 4 6 4 1 - % % & & & - % u B _ _ _ V V _ c _ V c x m ; ; ; 1 m 1 3 > N *. . . . .|  . . . ...;.=.=.| | ;.-.=.=.r ",
"9 7 8 7 4 8 7 6 8 l f 4 1 % & & & $ - = r C ` ` ` _ _ _ _ _ _ _ x x x m m ; m m 5 5 N #... .@...=. . ... . ...@.;.| =.@.@.=.=.g ",
"3 , , - - 1 - 3 3 - - - > % * + + X = = e h B l B B 8 B B 8 9 B m x m ; 5 ; O 5 > r p S V S Z S S S Z [ Z S S B B B B m g m h e ",
"U P K G G G G Q H : e p G D D D J b D D H U P G P Y U R R F M j M M G D J D D J H G H E R ! U U I E U R G M U I R R I J J K G H ",
"r.y.y.y.y.y.y.g.*.r R I &.T $.w.w.R G G E T I T E *.$.*.6.I M D P E &.I P A E &.$.E T &.&.w.E E $.&.&.E R J q.q.q.q.r.r.q.q.q.y.",
";.:.,.3.3.,.3.j.2.M w.S V c S | V h 5 g B Z B _ ` | ` ` [ _ h N T ` ` c x x S | ` | | ` V { ` V ` | V Z N R 2.;.;.;.;.=.>.;.;.>.",
"3.3.3.,.3.3.3.5.3.P e.Z V V c V B 6 5 6 x V ` ` ` ` _ ' ' { h A I ` ` V V c V ` ` ` ` _ ` ` ` ` ` ` ` S m I 3.>.;.;.>.>.;.>.;.1.",
"h.3.3.1.3.3.5.5.3.A *.V c x c x 6 6 6 6 8 c _ _ _ V _ _ ` _ x m S ` V _ ` c ` ` _ _ _ _ c ` c ` _ _ ` c m U 3.:.1.2.:.:.:.,.:.3.",
",.,.0.5.2.#.#.>.2.M +.c x x 7 6 6 6 4 4 4 x B V _ _ c V V _ x g S c V c c c c ` c _ _ _ _ c c x x x x x m K 2.1.,.,.,.,.:.,.,.,.",
"O.I O.+.T F M P P M G N m m > g > t r 5 3 p g N C N N N M L M j F m C m m A m m h 5 5 g m m m N M r m > > D +.T I O.I O.T O.I I ",
"P U G U R J b M M b F F G G P G G G G M v K R R R E R R ! R E E E R E R P G G M u : e M M N F R K b b b b M D D G F L G G P F e ",
"O.| [ +.2.%.B 5 m | S S | | #.#.#.#.@.C R y.t.t.t.t.t.t.t.t.t.3.t.2.2.2.#.#.| I Z m M +.Z Z [ +.&.C > > m Z V Z B Z S S Z S l # ",
"] V V V V 9 7 6 1 x V ` ` ` ` { } ` ` V R *.>.;.=.=.;.;.;.;.>.=.1.#.;.;.;.@.=.@. .Z g S 8 8 x 8 6 3 ; % 1 8 9 8 9 8 9 8 8 9 8 % ",
"_ _ _ V _ V 8 x x x ` ` ` { ` ` { {  .V E q.:.:.>.;.>.:.>.1.:.>.1.;.;.1.;.=.;.;.;.I k S 9 9 9 9 x 1 ; ; 1 8 9 x 9 9 9 9 9 x c = ",
"_ _ _ V V c x x x x x V ` ` ` { V ` | V E q.3.,.>.;.=.>.:.3.:.2.3.1.3.2.,.,.,.:.@.Z M [ V z 9 8 4 ; ; 1 4 8 8 c 9 c 9 9 9 c c > ",
"l 8 6 6 3 5 5 3 3 5 > > x m x B 5 5 m 5 F P +.+.[ Z Z S [ S S +.+.+.@.| | O.O.O.A d j Z 6 6 4 - ; = = ; 1 ; ; 6 6 4 6 5 = 3 3 = ",
"M t i M u u t i u # q q y p y y y y y q q u j p p g M M M M i : t N N F N N M N j j t k j j j p t p p u e # e u p p t w w e p p ",
"&.w.q.*.e.q.q.e.~ p ! E E E E I E $.7.I g M N M N S $.$.&.E H b R q.i.r.q.q.0.r.r.&.$.8.8.y.y.u.p.p.i.7.H p E E $.6.E *.*.w.7.q.",
"x x _ _ _ _ c c c t &.B x 8 7 4 4 8 x 8 8 4 1 & & 1 8 8 x x > F >.:.:.o.=.....o.:...} ' { ..=.<.4.:.o.[ > p 6 8 4 4 7 8 x 8 x x ",
"c c c _ _ _ _ _ V g 7.V x x 8 8 8 x x 8 9 9 9 4 1 1 8 x x x 3 L 2.1.4.4.4.1.:.:.<.<.:...' ....-.1.4.1. .5 r 1 8 x c c c x x x c ",
"` ` ` c _ _ _ _ ` k $.V c c 9 9 9 9 8 8 8 8 8 7 7 7 8 9 9 c 3 N 0.<.<.5.<.<.......<.-...' { { { ......[ 3 = & 4 8 9 9 z c c c V ",
"V c ` ` _ V V _ V m T B x x 9 9 9 9 8 8 8 8 8 8 9 8 l 8 8 9 5 N 0.5.<.>...' 7 9 z z z _ _ z 4 < 2 < 7 , o + % , 2 7 8 z c c c V ",
"Z Z S Z A N N C A j G C l h B m N B l C h l l C C l k k j N j F 6.;.+.z l f f h 7 7 f f f - = : = 0 = = + # = = = d f g B C Z C ",
"( ( ~ R R R U K J F W Q W W W Q Q ^ ^ U H ^ s.a.a.a.a.a.a.a.a.a.s.s.a.w.9.^ ( W j r u s W ^ ~ ( ) ( ~ W J K ^ ^ ^ ~ ( ^ ^ ~ ^ s ",
"| S Z x 6 ; O X X * % % = & - d h z C f k 8.0.,.>.>.,.r.,.t.,.t.0.0.3.,.=.%.+.S Z k j O.B V V %.0.0.+.[ Z Z l B B B V B V V l + ",
"V c c c x 6 % $ o & & & & & < z ` ` [ V L %.,.;.;.;.;.;.;.;.;.;.-.:.;.;.=.=...=.@.Z j ] 8 9 x 8 z { ;.[ l 8 9 9 9 8 9 9 l 9 9 % ",
"` c _ _ V c x 6 6 z _ z 2 < l _ ' ' { V P %.>.:.,.;.;.,.:.,.,.;.,.:.:.;.;.=.;.;.;.I k O.9 c z z _ { :...z 9 x x c 8 9 8 9 9 9 = ",
"` _ _ _ c B c c l 8 l 8 6 7 _ ` ] ` [ _ L %.,.0.;.;.@.=.;.>.,.:.>.,.,.,.,.;.,.;.%.Z k [ 9 z z ] { =.@.[ z 7 9 x c 9 9 9 9 9 9 - ",
"V B l l 5 h 6 h 4 5 O = 3 h B B f f f f s I =.=.O.[ [ [ @.+.+.+.=.=.=.%.=.=.@.O.Z k g S l z z l z Z Z h 5 1 > 6 8 8 6 6 > 5 6 : ",
"i u u u y y y u y @ 0 0 e y y y u u y w w u s j M M D M j p e 0 e u j j p u r u u e y u e e y y e 0 e e 0 @ q e u u y w w y i i ",
"x.x.c.x.z.c.x.x.f.s e.f.g.f.f.y.p.f.k.f.y.i.g.k.k.k.k.k.k.f.Q M L 7.8.! K d r f k L k G k k k k G K R U s D g.f.f.f.f.g.l.z.c.c.",
";.,.,.,.<.,.0.<.;.g *.=...{ { Z ]  . ................... . .l g l l 8 8 < < - $ . $ $ $ $ $ X $ & , 7 8 d K >.;.@.[ ;.;.;.;.;.>.",
"3.3.3.3.3.<.0.<.,.k 0.=.......{ ............=.....=...=.....B k B 8 8 9 z 8 8 8 4 1 4 4 , & % % 7 9 9 8 f U ,.;.;.;.;.:.>.:.;.,.",
"3.5.3.3.,.h.h.h.3.k @.=.=.......=...=.....=.......{ ......=.Z k A c c c z 9 9 9 9 9 c 9 9 2 , , 8 z c 9 h U ,.,.,.:.,.,.:.,.,.3.",
"<.,.5.5.h.,.3.j.h.k O.....=.....=.=...=.......=...=.{ { { =.B k B c z c z z 9 V V c c 9 7 2 4 8 x 8 z x l G <.0.,.,.:.,.,.,.,.3.",
"Z A A S k r r k k r k l h h h l z f l h l l l l f f > # O r > e d 5 > 1 3 3 3 1 3 3 - 1 - , - - = # = = r s Z l Z Z C C Z Z C P "
};
