/* XPM */
static char *result[] = {
/* columns rows colors chars-per-pixel */
"32 32 175 2 ",
"   c gray10",
".  c #2C0D0D",
"X  c #320D0D",
"o  c #231414",
"O  c #2F1010",
"+  c #331010",
"@  c #361010",
"#  c #331414",
"$  c #361414",
"%  c #351616",
"&  c #361717",
"*  c #391414",
"=  c #3A1414",
"-  c #3D1414",
";  c #381A1A",
":  c #3A1A1A",
">  c #282828",
",  c gray16",
"<  c #2A2A2A",
"1  c gray17",
"2  c #2C2C2C",
"3  c #2D2D2D",
"4  c gray18",
"5  c #2F2F2F",
"6  c gray19",
"7  c #313131",
"8  c #323232",
"9  c gray20",
"0  c #353535",
"q  c gray21",
"w  c #373737",
"e  c gray22",
"r  c #393939",
"t  c #3A3A3A",
"y  c #3C3C3C",
"u  c #3E3E3E",
"i  c #4B0000",
"p  c #4E0000",
"a  c #510000",
"s  c #540000",
"d  c #570000",
"f  c #580000",
"g  c #5A0000",
"h  c #5B0000",
"j  c #5E0000",
"k  c #401414",
"l  c #541C1C",
"z  c #581F1F",
"x  c #5E1C1C",
"c  c #600000",
"v  c #610000",
"b  c #620000",
"n  c #640000",
"m  c #650000",
"M  c #670000",
"N  c #680000",
"B  c #6A0000",
"V  c #6B0000",
"C  c #6D0000",
"Z  c #6E0000",
"A  c #700000",
"S  c #710000",
"D  c #720000",
"F  c #730000",
"G  c #740000",
"H  c #750000",
"J  c #760000",
"K  c #770000",
"L  c #780000",
"P  c #7A0000",
"I  c #7B0000",
"U  c #7D0000",
"Y  c #7E0000",
"T  c #611C1C",
"R  c #641C1C",
"E  c #712323",
"W  c #7E2222",
"Q  c #7F2323",
"!  c #7F2A2A",
"~  c #613838",
"^  c gray25",
"/  c #414141",
"(  c gray26",
")  c #434343",
"_  c #444444",
"`  c gray27",
"'  c #464646",
"]  c gray28",
"[  c #484848",
"{  c #494949",
"}  c gray29",
"|  c #4C4C4C",
" . c #4E4E4E",
".. c #505050",
"X. c #535353",
"o. c #800000",
"O. c #810000",
"+. c #820000",
"@. c #830000",
"#. c #840000",
"$. c #850000",
"%. c #870000",
"&. c #880000",
"*. c #8A0000",
"=. c #8B0000",
"-. c #8D0000",
";. c #8E0000",
":. c #900000",
">. c #910000",
",. c #920000",
"<. c #940000",
"1. c #950000",
"2. c #960000",
"3. c #970000",
"4. c #980000",
"5. c #9A0000",
"6. c #9B0000",
"7. c #9C0000",
"8. c #9D0000",
"9. c #9E0000",
"0. c #9F0000",
"q. c #891F1F",
"w. c #8A1F1F",
"e. c #951F1F",
"r. c #A00000",
"t. c #A10000",
"y. c #A20000",
"u. c #A40000",
"i. c #A60000",
"p. c #A70000",
"a. c #A90000",
"s. c #AA0000",
"d. c #AC0000",
"f. c #AD0000",
"g. c #AE0000",
"h. c #B00000",
"j. c #B10000",
"k. c #B30000",
"l. c #B40000",
"z. c #B60000",
"x. c #B70000",
"c. c #B90000",
"v. c #BA0000",
"b. c #BC0000",
"n. c #BD0000",
"m. c #BF0000",
"M. c #842323",
"N. c #822626",
"B. c #852626",
"V. c #8C2121",
"C. c #8C2222",
"Z. c #8E2323",
"A. c #8E2626",
"S. c #852A2A",
"D. c #922222",
"F. c #942323",
"G. c #912626",
"H. c #982222",
"J. c #9D2626",
"K. c #912A2A",
"L. c #962C2C",
"P. c #952E2E",
"I. c #982E2E",
"U. c #9B3030",
"Y. c #A02A2A",
"T. c #C00000",
"R. c #C20000",
"E. c #C30000",
"W. c #C60000",
"Q. c #C90000",
"!. c #CC0000",
"~. c #CF0000",
"^. c #D50000",
"/. c #E10000",
"(. c #E40000",
/* pixels */
"y / u u / u u / r u u u / _ _ / u u u u _ _ _ / u r 0 u _ u u r ",
"e.~.!.z.R.W.x | /.b.b.b.c.T.T.c.c.W.T / ^.^.~.~.m.b.Q.z.f.v.v.R ",
"Z.>.>.0.=.Y - | b.8.3.=.>.1.#.4.&.Y k { h.=.;.O.>.*.9.;.%.&.=.k ",
"M.>.;.4.O.L # { T.3.*.1.#.&.U ;.O.O.* u t.=.3.#.K 6.>.;.*.&.>.$ ",
"E L c g a j # / $.M v n B g j j s f # u %.n V M v M g v d B j # ",
"` 4 9 w 9 > 1 / u w w 2 > w 9 > 9 w w [ u u ^ ' ^ t 4 < 8 t w q ",
"m.c.u.s.p.u.f.>.` J.c.b.k.c.a.n.h.r.s.s.p.s.k.l.x.v.z ) (.z.c.c.",
">.3.O.#.:.I 9.f 9 Z.;.>.3.%.O.O.;.*.O.%.*.#.>.#.4.Y & ] h.6.*.4.",
">.;.o.%.=.P 1.f 9 G.&.>.;.%.C L 3.K >.Y A $.>.U =.=.O u s.6.&.%.",
"V h f N N f m i t ! L B H S M B S Z M B n Z B g Z n . ) 4.n a V ",
"u 5 9 8 5 w 1 1 ( ` y 7 7 7 t u e t < > 6 w 7 > 0 w u [ ^ 7 t w ",
"Y.m.c.c.c.f.f.n.f.f.h.u.n.#.` Y.b.Q.c.T.c.x.3.s.8.p.s.p.p.s.9.l ",
"q.>.1.o.O.4.<.6.K =.3.K ;.N t U.u.=.$.#.4.=.#.Y =.;.;.=.y.>.Z # ",
"B.#.L o.O.*.Y <.K <.#.K #.v t L.<.&.%.<.=.Y C L P o.&.1.#.P P # ",
"Q +.V n v V C S B j h N N i 4 S.L H B V V C S N j N B N V v Z # ",
"| / t 9 9 4 t ' u t u q 4 7 e { w q t t < < 8 _ t < 8 w q t w q ",
"l.l.x.x.v.z / Q.f.h.f.s.j.u.5.j.t.u.p.>.` K.c.h.n.f.d.p.u.s.p.u.",
"*.6.4.;.#.# ` 7.6.>.;.&.3.Y o.:.;.O.=.D _ I.&.=.3.;.9.*.=.;.=.#.",
"3.>.4.=.#.: { s.=.#.P -.:.#.K =.Y $.<.N / P.>.4.&.3.%.>.;.4.@.#.",
"f Z j N h & ' +.$.S Z L Z V M K V Z Z p w N.S L $.Y Y I H S G V ",
"t q 9 9 9 4 ` t > 6 w / u 2 > w w q 9 9 ( { q t ' | e 2 w t q q ",
"D.z.z.f.f.g.p.8.t.p.s.t.t.j.5.>./ H.E.f.f.s.s.9.2.p.u.r.p.t.s.l ",
"Z.Y ;.O.=.=.U *.Y #.Y K #.#.*.v 9 Z.3.C #.C #.#.Y &.#.=.*.;.Y # ",
"C.;.3.#.#.,.=.Y G Y -.#.#.,.#.N 1 G.$.;.P Y +.P K Y %.#.;.;.O.# ",
"W G G S I G B S m M s b V V V h 5 S.L C G M K N B N V V V V n # ",
"/ q t t w t | u 5 9 t 3 > 8 w 5 u / t w w 6 0 ) u 9 w ,   2 w t ",
"k.s.p.9.p.h.t.p.>.( F.E.n.f.i.f.t.t.g.t.t.9.<.z [ ~.i.s.u.u.t.u.",
">.Y =.Y O.G #.I c w V.%.=.Z P #.&.Y +.#.J #.L % | 7.#.=.>.*.I G ",
"&.#.G Y =.&.G =.g w w.L &.=.P P Y Y A I *.B G # { f.P >.#.Y O.=.",
"&.Y S P Y G $.O.n w A.L =.P J I Y S I <.Y Y F # u 5.Z S =.=.S +.",
"= = = = = = = = # w ~ ; % $ = = = = = @ X X + o ` l $ = @ X X = ",
"| | _ [ | | X.[ | ..X.X.| ..| ..| [ | ' ' _ } '  .| | | | ' } | "
};
