/* XPM */
static char *result[] = {
/* columns rows colors chars-per-pixel */
"32 32 251 2 ",
"   c gray47",
".  c #5E5A53",
"X  c #533C1C",
"o  c #6A4725",
"O  c #5C4020",
"+  c #593F1F",
"@  c #48351A",
"#  c #543D1D",
"$  c #513B1B",
"%  c #4E432E",
"&  c #6A6A6A",
"*  c gray45",
"=  c #777777",
"-  c gray20",
";  c #2C2C2C",
":  c #4E4E4E",
">  c #646464",
",  c gray36",
"<  c gray31",
"1  c #515151",
"2  c #585858",
"3  c #606060",
"4  c gray39",
"5  c gray44",
"6  c DimGray",
"7  c #555149",
"8  c #604220",
"9  c #543C1C",
"0  c #453419",
"q  c #4D3A1A",
"w  c #55524D",
"e  c #5D5D5D",
"r  c #584834",
"t  c #503B1B",
"y  c #4E391B",
"u  c #4D4332",
"i  c gray24",
"p  c gray38",
"a  c #565656",
"s  c #6F6F6F",
"d  c #553D1C",
"f  c #4E381B",
"g  c #443418",
"h  c #554F42",
"j  c #6B6155",
"k  c #523E24",
"l  c #483818",
"z  c #453518",
"x  c #423218",
"c  c #5B5852",
"v  c #868686",
"b  c gray32",
"n  c #4C4C4C",
"m  c #6C6C6C",
"M  c #5B574F",
"N  c #493F2E",
"B  c #5C4C38",
"V  c #4B3919",
"C  c #403018",
"Z  c #3E3116",
"A  c #524E44",
"S  c gray54",
"D  c gray30",
"F  c #4B4B4B",
"G  c #767676",
"H  c #573E1E",
"J  c #4A3F2E",
"K  c #63605D",
"L  c #727272",
"P  c #564025",
"I  c #4A3919",
"U  c #433318",
"Y  c #3B2E16",
"T  c #3C2F16",
"R  c gray29",
"E  c #484848",
"W  c #534F49",
"Q  c #4C463C",
"!  c #4E4B48",
"~  c #423417",
"^  c #392D15",
"/  c gray34",
"(  c gray33",
")  c gray58",
"_  c #564328",
"`  c #4F3A1A",
"'  c #382C14",
"]  c #5F4E3B",
"[  c #513C1C",
"{  c #4E3A1A",
"}  c #413C33",
"|  c gray46",
" . c gray43",
".. c #4F4A40",
"X. c #6D5A46",
"o. c gray37",
"O. c #5A5A5A",
"+. c #553F24",
"@. c #4E3E26",
"#. c gray40",
"$. c #434343",
"%. c #645D56",
"&. c #3D2E16",
"*. c #4C4233",
"=. c #64482C",
"-. c gray28",
";. c #3E3E3E",
":. c gray22",
">. c #4C453C",
",. c #656565",
"<. c #4F4333",
"1. c #51504C",
"2. c #5F584B",
"3. c #595246",
"4. c #716E69",
"5. c #494949",
"6. c #3C3C3C",
"7. c #393939",
"8. c #3A3A3A",
"9. c #555555",
"0. c #4C3919",
"q. c #676767",
"w. c #463618",
"e. c #3B2E15",
"r. c #443F36",
"t. c gray27",
"y. c #989898",
"u. c gray25",
"i. c gray23",
"p. c #5D5953",
"a. c #464646",
"s. c #797979",
"d. c #453E30",
"f. c #3D3016",
"g. c #504F4B",
"h. c #414141",
"j. c gray49",
"k. c #6D6D6D",
"l. c #574734",
"z. c #423316",
"x. c #484138",
"c. c #808080",
"v. c #725D47",
"b. c #423D33",
"n. c #4A453B",
"m. c #5F5F5F",
"M. c #686868",
"N. c #505050",
"B. c gray42",
"V. c #747474",
"C. c #51483D",
"Z. c #453E35",
"A. c #6C5F52",
"S. c #624322",
"D. c #69635B",
"F. c #717171",
"G. c #535353",
"H. c #403217",
"J. c #7E7E7E",
"K. c #644E36",
"L. c #676154",
"P. c #343434",
"I. c #775F4A",
"U. c #6E5640",
"Y. c #645440",
"T. c #68533E",
"R. c #443A29",
"E. c #626262",
"W. c #635A4D",
"Q. c #4F493C",
"!. c #6B5540",
"~. c #684623",
"^. c #655A4E",
"/. c #403728",
"(. c gray35",
"). c gray48",
"_. c #898989",
"`. c #323232",
"'. c #6C4F39",
"]. c #664522",
"[. c #5B3F1F",
"{. c #5E5447",
"}. c #483719",
"|. c #423928",
" X c gray26",
".X c #313131",
"XX c #784D29",
"oX c #4D4943",
"OX c gray52",
"+X c #444444",
"@X c gray19",
"#X c #6A5D50",
"$X c #744B28",
"%X c #624321",
"&X c #573D1D",
"*X c #5B5346",
"=X c #8D8D8D",
"-X c #353535",
";X c #3F3F3F",
":X c #654F3A",
">X c #724A27",
",X c #644423",
"<X c gray57",
"1X c #5B5B5B",
"2X c #6A4625",
"3X c #583E1E",
"4X c #252525",
"5X c #5A472E",
"6X c #694724",
"7X c #5A3F1F",
"8X c #272727",
"9X c #5F5C54",
"0X c #5E4120",
"qX c #604221",
"wX c #593E1E",
"eX c #595651",
"rX c #4E3C22",
"tX c #524838",
"yX c gray18",
"uX c #2F2F2F",
"iX c #635D56",
"pX c #52504A",
"aX c #76614B",
"sX c gray50",
"dX c #453924",
"fX c gray17",
"gX c #544229",
"hX c #4A3E2A",
"jX c #6C5641",
"kX c #2A2A2A",
"lX c #222222",
"zX c #848484",
"xX c #69533E",
"cX c #4E473A",
"vX c #514E4A",
"bX c #282828",
"nX c #202020",
"mX c #4C422E",
"MX c #433929",
"NX c #232323",
"BX c #624D37",
"VX c #473619",
"CX c #473D2E",
"ZX c #483C24",
"AX c gray21",
"SX c gray12",
"DX c gray15",
"FX c #483E2E",
"GX c #514734",
"HX c #4B4845",
"JX c #1E1E1E",
/* pixels */
"  . X o O O O + O O O @ # O $ % &   * = - ; ; : > , < 1 2 3 4 5 ",
"6 5 7 8 O O O O 9 O O 0 $ q w e r t y u e i : > p , 3 , 2 a a a ",
": 6 s d O O + O O O f g h 5 j k l l z x c v > , b b b b b b b b ",
"n : m M X O O O + f N , 5 B V l l l C Z A S , D n n F n n n n n ",
"n n F G 7 X H f J K L j P I l l U l Y T A G < n R n n n n F n n ",
"n n E L G W Q ! & * r $ I V l l ~ l Z ^ e 5 b F F F n F F n n F ",
"n F R s / ( 3 ) = _ 9 ` q l l l Z l Z ' 6 5 < n n n n F F E E n ",
"F R   , ( ( E 6 ] [ { l l l l l T l Z } |  .< n n n n n n E E F ",
"R 3 > e ( 1 R / ] $ l I l l l l ^ l Y ..X.o.n n n n F n n n F i ",
"O.+.@.#.1 $.n ( %.9 l l l l l z &.T *.=.O M n F n n n n -.;.:.D ",
"+.V l >.,.: n ( 4 <.l l l l l ^ ' 1.  2.3.4.5 5.6.6.6.7.8.6.9.3 ",
"V 0.l U 5 b n 1 b q.w.l l l e.r., b t.E E G y.  1 ;.u.u.i.9.,.+.",
"l l l z p.L a.5./ s.d.f.Z ^ g.5 b h.i.6.u.$.j.& k.1 :.:.9.5 l.V ",
"` q l z.x.c., / m v.e b.n.m.M.N.h.E i.;.;.t.B.< F k.m G V.C.I l ",
"l V z z.Z.| V.A.S.O O D.F.M.N.h.$.u.7.u.:.1 p F E G.G * o.q 0.` ",
"l l H.x Q J.4 s K.O X L.m N.E u.u.u.7.u.P.m.I.U.U.U.Y.T.o.q ` 9 ",
"l l Y R.3 E.2 2 G W.Q.5 N.a.D u.u.u.P.i a.!.~.O O O t O ^.q 0.l ",
"l z /.3 k.(.( ( 2 )._.M.h.t.: u.u.u.`.:.3 '.].O [.O t O {.}.l l ",
"l |.3 | o./ ( ( ( 2 S | u.t.<  Xu.u..Xt.s XX].O O O # O {.oXw.l ",
"R.3 | B.a ( 9.( ( : 2 OXh.$.: +Xu.u.@X(.#X$X%XO O O &XO *XG oXU ",
"3 =X)./ ( ( / ( ( E 1 4 < -X;Xt.u.u.@Xm :X>X,XO O + [.O 3.n 2 (.",
"b <X, ( 1X/ ( a ( D n ( b < 6.$.u.i.$.L S.~.2XO O 3XO O 3.; ; -X",
"4X4 ( ( , 9.( ( 1 D t.( +XL (.- 6.8.(.| 5XO 6XO O O 7XO 3.; ; 8X",
"n > 1 / a a ( ( D D  X+XR k.9X9.- .X* (.e 5X0XqXO H wX$ eX; 4X; ",
"| 5 4 < 9.( ( ( D R :.R / rXU tXE.5 2 yXuX, iXH O O $ pX5 +X:.:.",
"B.aXsXq.t.( ( ( E h.5./ rXl U U dX* -X; fXyX, m gXhXpXO.( ( ( G ",
"S.O S.jX(.u.1 R ;.N.1 rXl z U U R.D ; 8XkXfXuXm.m (.* < b ( F L ",
"7XO O + X r u.u.2 C.3XI l z U C n .X; ; lX8X; uXm.zXp 1 ( 1 5.xX",
"O 9 O H t X cX2 C.$ X l l U U vX$.; bXfXkXnX8X; uXm.o.( ( F 9.S.",
"O O O q 0 mX5 (.I ` t I l U MXb -X; kXfX; lXNX8X; uX(.< n 5.BXO ",
"O O O VXCXq.m.& ZX` t l l U , AX- ; ; kX; 8XSXDX8X; 4XO.b 9.S.O ",
"O O f FXG $.u.(.GX` V l z HXt.; - ; fXkX; kXJX8XlX8X4Xm 3 xXO O "
};
