/* XPM */
static char *result[] = {
/* columns rows colors chars-per-pixel */
"32 32 188 2 ",
"   c #2D2D13",
".  c #353413",
"X  c #3A3913",
"o  c #34331F",
"O  c #262626",
"+  c #2D2D21",
"@  c #2C2C2C",
"#  c #3D3C2F",
"$  c #333224",
"%  c #343434",
"&  c #3B3B3B",
"*  c #403E19",
"=  c #464500",
"-  c #565300",
";  c #5D5B13",
":  c #4A491A",
">  c #6B6700",
",  c #737000",
"<  c #7C7900",
"1  c #7D7C0D",
"2  c #6D6B1E",
"3  c #666616",
"4  c #747416",
"5  c #7B791C",
"6  c #7E7912",
"7  c #4E4E28",
"8  c #454426",
"9  c #474730",
"0  c #4B4A3C",
"q  c #5A5A36",
"w  c #6A6829",
"e  c #7E7D21",
"r  c #777528",
"t  c #7E7C2B",
"y  c #737124",
"u  c #6C6C34",
"i  c #64643C",
"p  c #686738",
"a  c #6D6C3D",
"s  c #626132",
"d  c #787732",
"f  c #74733C",
"g  c #7B7938",
"h  c #434343",
"j  c #4B4B4B",
"k  c #535353",
"l  c #5C5C5C",
"z  c #605F45",
"x  c #6C6B44",
"c  c #696949",
"v  c #706E43",
"b  c #7A7A43",
"n  c #75744A",
"m  c #7E7E4C",
"M  c #757445",
"N  c #656453",
"B  c #6A6A54",
"V  c #6D6D5B",
"C  c #706F5E",
"Z  c #797750",
"A  c #77775E",
"S  c #777759",
"D  c #636363",
"F  c #6B6B6B",
"G  c #757563",
"H  c #7C7B66",
"J  c #7D7C6A",
"K  c #747474",
"L  c #7C7C7C",
"P  c #827F00",
"I  c #827E16",
"U  c #807E43",
"Y  c #898600",
"T  c #8B8A00",
"R  c #868500",
"E  c #908E00",
"W  c #969400",
"Q  c #9B9A00",
"!  c #8B8613",
"~  c #8E8A1D",
"^  c #8A8519",
"/  c #928D14",
"(  c #908B19",
")  c #96911D",
"_  c #9A961F",
"`  c #A39E00",
"'  c #A69E1D",
"]  c #A6A100",
"[  c #ABA500",
"{  c #AFAB00",
"}  c #B4AD00",
"|  c #BBB400",
" . c #A9A51B",
".. c #B3AE1B",
"X. c #BAB41B",
"o. c #B5B11B",
"O. c #848424",
"+. c #86862B",
"@. c #948F28",
"#. c #909022",
"$. c #9C9721",
"%. c #8C8B35",
"&. c #90903B",
"*. c #A29D36",
"=. c #A7A528",
"-. c #A9A528",
";. c #B4AD2B",
":. c #BBB62B",
">. c #ABA532",
",. c #ADA839",
"<. c #B4AE3C",
"1. c #B0AC36",
"2. c #B7B23D",
"3. c #C1BB00",
"4. c #CCC400",
"5. c #DAD000",
"6. c #C6C01B",
"7. c #D0C716",
"8. c #DDD72A",
"9. c #848245",
"0. c #8D8A44",
"q. c #928F4A",
"w. c #97944E",
"e. c #84845F",
"r. c #8C8B59",
"t. c #908F54",
"y. c #949354",
"u. c #989557",
"i. c #95945D",
"p. c #9D9B5C",
"a. c #98965B",
"s. c #A29F40",
"d. c #A09D58",
"f. c #A5A24A",
"g. c #AAA749",
"h. c #ADAD4F",
"j. c #B2AE41",
"k. c #B9B342",
"l. c #A6A35D",
"z. c #A8A456",
"x. c #B2AE50",
"c. c #BBB754",
"v. c #878764",
"b. c #8A8A65",
"n. c #858469",
"m. c #898969",
"M. c #908E65",
"N. c #959362",
"B. c #92916C",
"V. c #868674",
"C. c #8A8A73",
"Z. c #8C8C79",
"A. c #949374",
"S. c #9B9B76",
"D. c #93937B",
"F. c #999878",
"G. c #A09E7B",
"H. c #A5A362",
"J. c #A9A660",
"K. c #A2A268",
"L. c #ACA968",
"P. c #B1AE68",
"I. c #B8B56F",
"U. c #B9B669",
"Y. c #ACAA76",
"T. c #A9A87D",
"R. c #BDBA74",
"E. c #B4B178",
"W. c #CCC543",
"Q. c #C3C179",
"!. c #838383",
"~. c #8B8B8B",
"^. c #999984",
"/. c #959580",
"(. c #939393",
"). c #9B9B9B",
"_. c #AAA986",
"`. c #BAB88C",
"'. c #B3B196",
"]. c #B1B198",
"[. c #A3A3A3",
"{. c #ABABAB",
"}. c #B4B4B4",
"|. c #BABABA",
" X c #C3C192",
".X c #C3C3C3",
"XX c #CACACA",
"oX c #D1D1D1",
/* pixels */
"h h h h h K ! ! i.(.(.9.6 k k ~.(.(./ u D % & & h & & h h h h h ",
"K K K K j [.c.} i.6.R..X} h K |.N.w.T 2 l O p 3.T (.l.$.l ) K K ",
"}.;.!.L & [.h.R J J.K.!.%.% k P.S.(.u N l @ 4 { G U.x.| l ] p {.",
"{.H (.F % [._.n [.{.%.).~.% h v.p.(.~.L & @ 3 y !.X.m.< l K F b ",
"(.~.F j O [.|.~.1.M.~.(.(.& & j j & % & @ % D ).N.~.~.K !.(.(.~.",
"D k & @ O (.}.~.X.9.(.~.!.h @ h & D K !.n % l (.B !.t D D l l k ",
"O O @ @ % F .X(.B.(.(.~.A h @ F 8.I.}.}.f.* 0 k j 0 # % @ O O O ",
"h & % & % j {.).J.v.~.).s k O !.[ ~.7.A.u 8 & h h @ & & h h h h ",
"I.`.I.b.k h L w.b.C.K (.K k O ' B.~.] ~.N % ( Q j D P.2.E.[.2.`.",
"] -.W s j & k ~.L K F F l & O F !.N.j h h @ O.f & K 4.A.] (.{ b ",
"^.,.2 V h % j h % @ @ O O O O j j O O O O O (./.% K ).).C.(.=.m ",
"J.v.L K h @ 0.^ i L l % u ) ^ }.XX| | _ 8 l XX|.& F [.F.).Y.(.).",
"&.D.~.F & @ [ +.F K h j Q.A.S.Y.).Z.+.R X F E.{.; O.J z.} f !.L ",
"l j h @ @ % W K m.< & j XXU...Z.} [.^.V   F n.}.X 8 @ o . $ & j ",
"h j D D F & {.[.r.M 9 & XXJ.Y (.).(.W F   / XX}.% h & % % @ @ @ ",
"~...U {.{.% .X[.V.!.7 & [.o.r (.).(.W N   1 oX .% z T ` ] / Z j ",
"@.+.~.$.m & XX(.A.~.7 @ !.Y.>.B.!.!.W k O g .XP % (.(.T M w V h ",
"L ).). .x % .X).j.~.7 O F XXT G ).K.+.j O H {.>   (.[.R !.~.K h ",
"{.[.(., A % oX(.t.(.7   j }.H L !.B F h @ l l - # K F u F D l & ",
"{.[.y.y.v.% |.(.[.L l   h k j h % + h % % j h h h & % @ @ @ @ % ",
"N.] ).E x % {.).v.~.D . & a 4 4 5 c K !.(.(.).J.} E [.>.J.%.~.j ",
"@.9.).V.V O {.).B (.l . @ ] | | | ` }.{.R.T.{.] i.:.g.'...` B & ",
"e V.).(.D @ ).).).(.l   @ v y.W W R n }.F.D.[.[.f.q.(.[.L 0.l % ",
"F L F l % % L ).(.L l @ @ L oXt x G ~._.{.).c.F.(.~.k.K.).H D @ ",
"j & & % @ h j j j j h @ @ F XX(.).} b.(.[.).2.N.'.[.a.[.(.d.l @ ",
"l 0./ c h j & O O O O O O k l h j : A L a.z.I !.!.~.~.(.v.!.l % ",
"!.5.1.z.K.L.;.) ! 6 I z l l j h h & % & & % & & & % % % % % @ & ",
"!.}._.}.{.}.{.T.y.y.#.Y (..XW.{.l j h & & & % % % % % % % % h j ",
"V..X[.2.< }..X}. X].[.{.).{.p.L % h 5 W f [.F a } ` ) V.y.L l k ",
"L D j 0 0 j j k j j l l j j j h & @ K P J ).K K (.(.2.[.Q ~.~.& ",
"h @ @ O O O O O O O O O O @ O O O @ h = & & & j D ^ g Z s F l h ",
"h h & & h & & & & % & & % & & % & & & & & % & & % @ @ @ @ @ @ & "
};
