/* XPM */
static char *result[] = {
/* columns rows colors chars-per-pixel */
"32 32 201 2 ",
"   c #3F3F3F",
".  c #444444",
"X  c gray26",
"o  c #464646",
"O  c #3C3C3C",
"+  c #494949",
"@  c gray22",
"#  c #A81A1A",
"$  c #C80000",
"%  c #CB0000",
"&  c #B00000",
"*  c #B90000",
"=  c #C00000",
"-  c #532121",
";  c gray31",
":  c #DB0000",
">  c #B60000",
",  c #BD0000",
"<  c #562121",
"1  c #434343",
"2  c #CC0000",
"3  c #CE0000",
"4  c #C90000",
"5  c #BC0000",
"6  c #BB0000",
"7  c #C70000",
"8  c #B20000",
"9  c #A40000",
"0  c #B40000",
"q  c #592121",
"w  c #9C1D1D",
"e  c #910000",
"r  c #8B0000",
"t  c #9E0000",
"y  c #890000",
"u  c #780000",
"i  c #3A1A1A",
"p  c #B30000",
"a  c #9F0000",
"s  c #970000",
"d  c #8F0000",
"f  c #960000",
"g  c #810000",
"h  c #980000",
"j  c #790000",
"k  c #3E1A1A",
"l  c #4B4B4B",
"z  c #830000",
"x  c #930000",
"c  c #840000",
"v  c #8D0000",
"b  c #9D0000",
"n  c #900000",
"m  c #860000",
"M  c #850000",
"N  c #3D1A1A",
"B  c #901D1D",
"V  c #8A0000",
"C  c #990000",
"Z  c #700000",
"A  c #341A1A",
"S  c #8C0000",
"D  c #880000",
"F  c #7A0000",
"G  c #820000",
"H  c #7B0000",
"J  c #9A0000",
"K  c #950000",
"L  c #870000",
"P  c #361A1A",
"I  c #771D1D",
"U  c #710000",
"Y  c #5A0000",
"T  c #560000",
"R  c #4F0000",
"E  c #570000",
"W  c #7F0000",
"Q  c #640000",
"!  c #620000",
"~  c #650000",
"^  c #5C0000",
"/  c #530000",
"(  c #7E0000",
")  c #630000",
"_  c #690000",
"`  c #660000",
"'  c #670000",
"]  c #590000",
"[  c gray27",
"{  c gray20",
"}  c #393939",
"|  c gray24",
" . c #373737",
".. c gray18",
"X. c #313131",
"o. c #414141",
"O. c #323232",
"+. c #3E3E3E",
"@. c #3A3A3A",
"#. c gray23",
"$. c #484848",
"%. c gray28",
"&. c #4E4E4E",
"*. c gray25",
"=. c #353535",
"-. c #B50000",
";. c #9C0000",
":. c #A20000",
">. c #A10000",
",. c #A60000",
"<. c #AD2020",
"1. c #B10000",
"2. c #B70000",
"3. c #A80000",
"4. c #AC0000",
"5. c #4F2525",
"6. c #DF0000",
"7. c #7D0000",
"8. c #800000",
"9. c #371D1D",
"0. c #A70000",
"q. c #8E0000",
"w. c #9F2020",
"e. c #720000",
"r. c #940000",
"t. c #7C0000",
"y. c #301616",
"u. c #580000",
"i. c #550000",
"p. c #480000",
"a. c #872222",
"s. c #6F0000",
"d. c #6E0000",
"f. c #6B0000",
"g. c #600000",
"h. c #680000",
"j. c #5D0000",
"k. c #2D1313",
"l. c #343434",
"z. c gray19",
"x. c gray21",
"c. c #AF2222",
"v. c #AF0000",
"b. c #AB0000",
"n. c #770000",
"m. c #AE0000",
"M. c #C30000",
"N. c #9B0000",
"B. c #4B2121",
"V. c #971A1A",
"C. c #750000",
"Z. c #A62727",
"A. c #6C0000",
"S. c #902020",
"D. c #5F0000",
"F. c #A22323",
"G. c #920000",
"H. c #730000",
"J. c #881D1D",
"K. c #6A0000",
"L. c #6D0000",
"P. c #610000",
"I. c #8D2222",
"U. c #5E0000",
"Y. c #B80000",
"T. c #A00000",
"R. c #9E2222",
"E. c #AD0000",
"W. c #A52525",
"Q. c #3B2222",
"!. c #9F2424",
"~. c #4A0000",
"^. c #8A1F1F",
"/. c #4C4C4C",
"(. c #A21D1D",
"). c #A30000",
"_. c #AB1D1D",
"`. c #A50000",
"'. c #760000",
"]. c #540000",
"[. c gray32",
"{. c #2D2D2D",
"}. c #202020",
"|. c gray30",
" X c #9A1B1B",
".X c #361C1C",
"XX c #740000",
"oX c #991A1A",
"OX c #9B2020",
"+X c #391A1A",
"@X c #613A3A",
"#X c #3A2020",
"$X c #371A1A",
"%X c #341616",
"&X c #321313",
"*X c #321616",
"=X c #251B1B",
"-X c #505050",
";X c gray33",
":X c gray29",
">X c #515151",
/* pixels */
"  . X X . X X o O X X X o + + . X X X X + + + . X O @ X + X X O ",
"# $ % & * = - ; : * * * > , , > > = < 1 2 3 4 2 5 6 7 8 9 0 > q ",
"w e r t y u i ; p a s d e f g h r j k l 9 z x c x v b n m z M N ",
"B e V C c Z A l = C S f D r F d G H i X b z s m j J K n L z r P ",
"I U Y T R E A . W Q ! ! ~ ^ E E / / A X ( ) _ _ ) ` ^ ! E ' ] A ",
"[ { } |  ...X.1 o.| | O...+.@...#.| | $.1 . %.&.o *.=.X.@ *.| @.",
"0 -.;.:.>.C ,.c %.<.p 1.,.> :.2.3.J 9 9 a a 4.p 8 > 5.. 6.8 -.-.",
"x K 7.G S j J /  .w v d x m 8.G n D 8.y G M v G h u 9.+ 0.t D x ",
"e n W y q.j K / } w.z S r m U U K e.r.8.U ( e t.M M y.X >.t r M ",
"' u.u.Q Q i.^ p.*.a.U ' e.s.' ' d.f.~ ' g.h.' ^ h.j.k.. d ! R ! ",
". l.}  .=.| z.X.[ $.o.=.=.=.+.X #.*.z...x.| @ ..#.| 1 $.o.x.*.| ",
"c.* v.v.v.,.,., b.b.& C , n.%.c.m.M.& 5 -.p v 9 s a 0.>.a 0.N.B.",
"V.n q.u ( e x b n.M s C.q.j.o.Z.;.m ( 8.h n y n.M q.D D >.r.A.A ",
"S.t.s.7.( G H n n.r.V n.8.D.*.F.G.m m x d c d.d.H.H ( K 7.u u A ",
"J.H _ ) g._ K.L.` Y u.P.P.p.{ I.U s.' _ _ L.s.h.U.P.' h.K.) K.A ",
"; o *. . .{ o.&.. *.X @.{ =.| l | @.*.*.z.z.} +   z.} | @.*.| @.",
"8 8 Y.-.> 5.1 M.3.b.T.9 m.>.n m.t N.a c %.R.E.9 2.3.9 9 >.0.9 >.",
"M N.h n 8.A [ e J G.r z x u j S n c m h.+ W.z M x n T.v S G.y 8.",
"x r.h r 8.Q.l b r L j r d G d.V c 8.e ! . !.d h D x V e S h G G ",
"/ h.Y P.T 9.$.t.( U f.U ' Q ) Z _ f.' ~.| ^.f.U ( j j n.e.d.Z P.",
"*.@. .}  .{ %.O ..@ | o X O...+.| @. . .[ l @.*./.; +.O.+.*.@.@.",
"(.E.& 3.).b.9 s s a 9 s s m.e c . _.6 3.3.`.`.N.S >.>.h a h 0.B.",
"w n.m 8.v q.( e W g t.Z t.7.L Y  .w C L.y A.L L t.L D d S S c A ",
"w m s V L x q.M d.'.V L 7.V ( ! z.w.( q.t.m L 7.W 8.V 8.V d 7.A ",
"J.d.d.L.'.s.Q f.U.P.].Y ) Q ) /  .I.C.L.H.h.Z ' ' ~ ' ' ` ' P.A ",
"1 @.*.*.| o.[.X =.#.*.O...} | =.. 1 *.| | @ O $.X #.| {.}.X.| *.",
"m.`.J r.a 3.s a c . (.6 2.3.:.3.t t b.t t N.V 5.|.7 t ;.N.N.s N.",
"S 7.L 7.M L.c t.Y |  Xm d Z z m D t.t.8.H.L u .X; e W r v y u XX",
"r r H H z z C.r E | oXF M r W F M c Z XXc s.s.A l T.7.r M u G d ",
"S G Z C.H Z ( ( ^ | OX'.d g u c c e.n.r.8.g u A X q.' d.M M U t.",
"+X+X+X+X+X+X+X+XA | @X#X.X$X+X+X+X+X+X%X&X&X*X=X%.B.$X+X%X&X&X+X",
"-X-X+ |.; ; ;X|.; [.;X;X; [.; [.; |.; :Xl + &.:X>X; -X; ; :X&.; "
};
