/* XPM */
static char *result[] = {
/* columns rows colors chars-per-pixel */
"32 32 99 2 ",
"   c #5A3E1F",
".  c #6C4926",
"X  c #624323",
"o  c #5C3F20",
"O  c #654524",
"+  c #573C1F",
"@  c #483818",
"#  c #714A26",
"$  c #744C28",
"%  c #5B401F",
"&  c #52381C",
"*  c #784F2A",
"=  c #543D1C",
"-  c #654523",
";  c #5A401E",
":  c #563E1D",
">  c #4F3A1A",
",  c #614221",
"<  c #5D4120",
"1  c #4F3B1B",
"2  c #5D4020",
"3  c #624422",
"4  c #423116",
"5  c #7A502A",
"6  c #4B3919",
"7  c #664522",
"8  c #543C1C",
"9  c #694724",
"0  c #583F1D",
"q  c #704A27",
"w  c #503B1B",
"e  c #6B4825",
"r  c #523C1C",
"t  c #734B27",
"y  c #533C1C",
"u  c #4A3919",
"i  c #523B1B",
"p  c #6C4825",
"a  c #4E3A1A",
"s  c #6A4725",
"d  c #684724",
"f  c #714B27",
"g  c #543D1D",
"h  c #5F4120",
"j  c #654623",
"k  c #684624",
"l  c #674623",
"z  c #724B27",
"x  c #6F4A26",
"c  c #674624",
"v  c #634421",
"b  c #5A3F1E",
"n  c #694825",
"m  c #5E421F",
"M  c #6D4825",
"N  c #664523",
"B  c #5E411F",
"V  c #4D3A1A",
"C  c #573E1E",
"Z  c #604320",
"A  c #513B1B",
"S  c #4C3919",
"D  c #6A4724",
"F  c #5F4220",
"G  c #604220",
"H  c #6E4A27",
"J  c #5B401E",
"K  c #634422",
"L  c #583F1E",
"P  c #5E4120",
"I  c #644522",
"U  c #624322",
"Y  c #754E29",
"T  c #604321",
"R  c #684623",
"E  c #614321",
"W  c #634322",
"Q  c #5C411F",
"!  c #644422",
"~  c #774E29",
"^  c #573E1D",
"/  c #6F4925",
"(  c #604221",
")  c #553D1D",
"_  c #593F1F",
"`  c #624321",
"'  c #563D1D",
"]  c #6E4926",
"[  c #6C4824",
"{  c #704A26",
"}  c #5E4220",
"|  c #5D411F",
" . c #6F4A27",
".. c #5D401F",
"X. c #7D512C",
"o. c #6D4925",
"O. c #7F522D",
"+. c #5F4121",
"@. c #774E2A",
/* pixels */
"                                                                ",
". . . X o O . . . . . . X o O . X o O . . X o O . . . . . O + . ",
"@ # $ % & * = @ - ; : : > & * ; , & * < 1 2 & * 3 @ ; ; $ * 4 5 ",
"6 7 $ 8 & * , @ 9 0 : : > & * : , & * $ q , & * 3 @ ; ; $ * 4 5 ",
": w 2 > & * e r t y : : > & * y , & * $ $ , & * 3 @ ; ; # * 4 . ",
", @ u i & * $ p $ a : : > & * 6 , & * $ $ , & * 3 @ ; ; s * 4 d ",
"# 6 > , & * $ t f u : : > & * g , & * # $ h & * 3 @ ; , 3 * 4 j ",
"k 9 l % & * z $ x @ : : > & * c , & * v f b & * 3 @ ; , 3 * 4 n ",
"m $ q 8 & * M $ N @ : : > & * q B & * V C > & * 3 @ ; N Z * 4 . ",
"A # e > & * 7 $ , S : : > & * f C & * @ @ > & * 3 @ ; x m * 4 5 ",
"@ k , > & * b $ : > : : > & * 9 > & * V @ 8 & * 3 @ ; z g * 4 5 ",
"V y u i & * A x w g : : > & * y > & * D F G & * 3 @ ; # 6 * 4 5 ",
"y @ @ b & * 6 C u ; a : > & * @ > & * $ t , & * 3 @ ; s 1 * 4 H ",
"J @ S b & * @ @ @ K u : > & * @ 8 & * $ $ , & * 3 @ ; l L * 4 d ",
"P @ 0 8 & * @ @ @ s @ : > & * @ % & * # $ , & * 3 @ ; I U Y 4 j ",
"b V T > & * 6 @ @ # @ : > & * r G & * R $ B & * 3 @ ; Z e * 4 j ",
"> B B > & * L @ r x > : > & * l , & * L f r & * 3 @ P L z * 4 j ",
"@ P a > & * e 6 E W g : > & * t , & * @ C > & * 3 @ , A $ * 4 . ",
"@ 6 @ > & * $ < q Q ; : > & * $ B & * @ @ > & * 3 @ ! > $ * 4 ~ ",
"6 @ @ 8 & * z $ $ : T : > & * f C & * V @ > & * 3 @ e @ # * 4 5 ",
"^ @ S C & * M $ $ a 3 y > & * 9 > & * % @ 8 & * 3 @ / @ s * 4 . ",
"( 6 ) B & * E $ f @ - 6 > & * % > & * e _ % & * 3 @ s V ` * 4 j ",
"R ' ! ) & * A z , @ ] @ > & * 6 > & * $ p , & * 3 @ l 1 ' * 4 j ",
"` U [ A & * @ ^ a @ { @ > & * @ 8 & * $ $ , & * 3 @ l % > * 4 j ",
"L $ x > & * V @ @ r 9 @ > & * S % & * z $ B & * 3 @ Z U 6 * 4 j ",
"> # 9 > & * L @ @ m } @ > & * | , & * M $ C & * 3 @ L e V * 4 n ",
"@ 7 G > & * ! @ @ 9 : 1 > & * t , & * 7 x 8 & * 3 6 A { g * 4  .",
"@ b y > & * / V S # 6 ; > & * $ , & * b , > & * 3 V 6 s B * 4 ~ ",
"6 6 u i & * v R P f @ m > & * $ , & * 6 a > & * Z 1 @ ..9 * 4 X.",
"1 @ @ b & * V $ $ Q @ c > & * $ B & * @ @ > & * L J @ A o.* 4 O.",
"% @ > B & * @ % R 6 @ # > & * x C & * @ @ > & * V , @ @ g * 4 O.",
"+.g C b & * V @ 6 @ < N C & * C > & * V @ 8 & * w ( @ @ @ * 4 @."
};
