/* XPM */
static char *result[] = {
/* columns rows colors chars-per-pixel */
"25 25 33 1 ",
"  c #85635C",
". c #72473F",
"X c #482B26",
"o c #56312A",
"O c #4F2E28",
"+ c #4E3530",
"@ c #412824",
"# c #4D2A23",
"$ c #311E1B",
"% c #6C544F",
"& c #4B3632",
"* c #735751",
"= c #583C37",
"- c #3F2D29",
"; c #34231F",
": c #6A4C46",
"> c #643C35",
", c #613B34",
"< c #5A3831",
"1 c #67443D",
"2 c #5D3932",
"3 c #39231F",
"4 c #7B554E",
"5 c #56403C",
"6 c #775852",
"7 c #5F3F39",
"8 c #705550",
"9 c #523935",
"0 c #52332D",
"q c #331D19",
"w c #482620",
"e c #3E221D",
"r c #291916",
/* pixels */
" ..........X............X",
" ..........o............O",
"+oooO@@oooo#oooooX@XoooX$",
".....@%...........& .....",
".....O*...........= .....",
"XoooO$-ooo@@OooooX;+oooX@",
":>>>,<<>>><-1>>>>2<2>>>23",
" ..........=4...........O",
":>>>,<<>>><-1>>>>2<2>>>23",
"2>>>,35>>><<,>>>>2-:>>>2<",
".....o6...........7 .....",
"2>>>,35>>><<,>>>>2-:>>>2<",
":>>>,<<>>><-1>>>>2<2>>>23",
" ..........=4...........O",
" ..........&4...........@",
"XoooO$-ooo@@OooooX;+oooX@",
".....O*...........= .....",
".....X8...........9 .....",
"+oooO@@ooo@;0ooooX@XoooX$",
" ..........94...........X",
" ..........94...........X",
"qwwwerrwwwrrewwwwqrqwwwqr",
".....X8...........X......",
".....X8...........X......",
"XoooO$-ooo@@OooooX$XoooX@"
};
